<svg xmlns="http://www.w3.org/2000/svg" xmlns:xlink="http://www.w3.org/1999/xlink" version="1.1" x="0px" y="0px" viewBox="0 0 95 118.75" style="enable-background:new 0 0 95 95;" xml:space="preserve"><style type="text/css">
	.st0{clip-path:url(#d);}
	.st1{clip-path:url(#c);}
</style><g><g><defs><rect id="b" x="-1" y="-1" width="100" height="100"/></defs><clipPath id="d"><use xlink:href="#b" style="" overflow="visible"/></clipPath><g class="st0"><defs><rect id="a" x="-1" y="-1" width="100" height="100"/></defs><clipPath id="c"><use xlink:href="#a" style="" overflow="visible"/></clipPath><path class="st1" d="M33.8,20.3C33.9,20.3,33.9,20.2,33.8,20.3C33.9,20.3,33.9,20.3,33.8,20.3C33.8,20.3,33.8,20.3,33.8,20.3"/><path class="st1" d="M87.3,55.6C87.3,55.6,87.3,55.6,87.3,55.6c0.1-4.5,0.1-8.9,0.1-13.4c0-2.2,0-4.5-0.1-6.7     c0-1.1,0-2.3-0.1-3.4c0-0.5,0-1.1-0.1-1.6c-0.1-0.5-0.2-0.9-0.4-1.4c0-0.1-0.2-0.1-0.3-0.1c0,0-0.1-0.1-0.2-0.1     c-0.4-0.1-0.8-0.3-1.2-0.4c-0.4-0.1-0.8-0.1-1.1-0.1c-0.8-0.1-1.5-0.1-2.3-0.1c-1.5,0-3.1-0.1-4.6-0.1c-3.1,0-6.1,0-9.2-0.1     c-5.5,0-11,0-16.5,0.1c-2.7,0-5.5,0.1-8.2,0.1c-0.7,0-1.4,0-2.1,0c-0.6,0-1.3,0-2,0c-1,0.1-2.1,0.2-3.1,0.3     c0.1-0.5,0.2-1.1,0.2-1.6c0.1-0.7,0.1-1.4,0.1-2.2c0-1.3,0.1-2.7,0-4c0-0.4-0.5-0.7-0.9-0.7c-0.1-0.6-1-0.6-1.3,0c0,0,0,0,0,0     c0,0,0,0,0,0c0,0,0,0,0,0c0,0,0,0,0,0c0,0,0,0,0,0c0,0,0,0,0,0c0,0.1-0.1,0.1-0.1,0.2c0,0,0,0,0,0.1c0,0,0,0,0,0c0,0,0,0.1,0,0.1     c0,0,0,0,0-0.1c0,0-0.1,0.1-0.1,0.1c0,0.1-0.1,0.1-0.1,0.2c0,0,0,0,0,0c0,0,0,0.1-0.1,0.1c0,0,0,0.1-0.1,0.1     c-0.2,0.3-0.4,0.6-0.7,0.9c-0.1,0.1-0.2,0.2-0.2,0.3c0,0-0.1,0.1-0.1,0.2c-0.1,0.2-0.3,0.3-0.4,0.5c-0.4,0.4-0.8,0.8-1.1,1.2     c-0.9,0.9-1.8,1.9-2.8,2.8c-2.2,2.1-4.4,4.1-6.7,6.1c-2.1,1.9-4.3,3.8-6.5,5.6c-0.8,0.7-1.7,1.4-2.5,2.1     c-0.3,0.3-0.6,0.5-0.9,0.8C11,42,10.6,42.4,10.7,43c-0.1,0.3-0.1,0.6,0.1,0.9c0,0,0,0,0,0c0.3,0.6,0.7,1.1,1,1.7     c0.3,0.4,0.5,0.9,0.7,1.3c0.2,0.6,0.5,1.2,0.6,1.8c0.4,1.5,0.7,2.9,1.3,4.3c0.1,0.3,0.3,0.4,0.5,0.4c0.3,0.3,0.7,0.4,0.9,0.6     c0.1,0,0.1,0.1,0.2,0.1c0.2,0.4,0.4,0.7,0.6,1c0.5,0.6,1.1,1.2,1.7,1.8c1.2,1.2,2.4,2.5,3.7,3.6c1.3,1.2,2.5,2.3,3.8,3.4     c0.6,0.5,1.2,1.1,1.9,1.6c0.2,0.2,0.5,0.4,0.7,0.6c1.7,2,3.3,4,4.8,6.2c0.3,0.4,0.7,0.6,1.2,0.3c0,0,0.1-0.1,0.1-0.1     c0.4-0.1,0.6-0.5,0.7-0.9c0.3-1.7,0.4-3.4,0.4-5.2c0-0.6,0-1.3,0-1.9c0.4-1.2,0.4-2.5,0.4-3.8c0.8,0.1,1.7,0.1,2.5,0.2     c1.1,0.1,2.2,0,3.3,0.1c2.3,0,4.5,0,6.8,0c5.5,0,11,0,16.5,0c2.8,0,5.5,0,8.3-0.1c1.4,0,2.8,0,4.1,0c0.9,0,1.8,0,2.8-0.1     c0.2,0.1,0.4,0.2,0.6,0.2c0.3,0,0.5-0.1,0.7-0.3c0.1,0,0.1,0,0.2,0c0.3,0,0.6-0.2,0.7-0.6c0,0,0-0.1,0-0.1     c0.1-0.1,0.1-0.1,0.2-0.2c0.5-0.5,1-1,1.6-1.4c0.3-0.2,0.6-0.4,0.8-0.7c0,0,0.1-0.1,0.2-0.1c0.1,0,0.1-0.1,0.2-0.1     c0.1-0.1,0.2-0.2,0.4-0.2c0.1-0.1,0.3-0.2,0.4-0.2c0,0,0.1,0,0.1-0.1c0.1,0,0.2-0.1,0.3-0.1C87.3,57,87.7,56.1,87.3,55.6      M17.5,51.8c0.3,0.3,0.5,0.6,0.8,1c-0.2-0.1-0.4-0.3-0.6-0.4c0,0,0,0,0,0c0-0.1,0-0.1,0-0.2C17.6,52,17.5,51.9,17.5,51.8      M21.3,53.4c-0.2-0.1-0.3-0.2-0.5-0.3c-0.2-0.3-0.5-0.5-0.7-0.8c-0.8-0.8-1.5-1.7-2.2-2.5c-0.1-0.1-0.1-0.1-0.2-0.2     c1.8,1.6,3.5,3.1,5.2,4.8C22.4,54,21.9,53.7,21.3,53.4 M33.3,68.2c0,0.2,0,0.4,0,0.6c0,0.1,0,0.2,0,0.2c-0.3-0.4-0.5-0.7-0.8-1.1     c-0.1-0.2-0.1-0.4-0.2-0.5c-0.1-0.2-0.3-0.5-0.4-0.7c-0.3-0.5-0.6-1-0.9-1.4c-0.3-0.5-0.6-0.9-0.9-1.3c0.1,0.1,0.3,0.2,0.4,0.3     c0.2,0.1,0.5,0,0.6-0.2c0.1,0.1,0.2,0.3,0.3,0.4c0.2,0.3,0.4,0.5,0.6,0.8c0.1,0.1,0.2,0.2,0.3,0.4c0,0,0.1,0.1,0.1,0.1     c0,0,0,0.1,0.1,0.1c0.3,0.5,0.6,0.9,0.8,1.4c0,0.1,0,0.1,0.1,0.2c0,0,0,0,0,0.1c0,0.1,0.1,0.2,0.1,0.3c0,0.1,0,0.2,0,0.3     C33.3,68.1,33.3,68.2,33.3,68.2C33.3,68.2,33.3,68.2,33.3,68.2 M74,58.6c-2.2,0-4.5-0.1-6.7-0.2c-1.2,0-2.3-0.1-3.5,0     c-1.2,0-2.5,0.2-3.7,0.2c-2.7,0.2-5.4,0.3-8.1,0.4c-2.7,0.1-5.4,0.2-8.1,0.2c-1.3,0-2.6,0-3.9,0c-1.2,0-2.3-0.1-3.4-0.6     c-0.2-0.1-0.4-0.1-0.6-0.1c0,0,0-0.1,0-0.1c0.8,0,1.6-0.1,2.4-0.1c1.1,0,2.2,0,3.3,0.1c1.7,0.1,3.4,0.2,5.1,0.2     c3.5,0,6.9-0.1,10.4-0.3c4.5-0.2,9-0.4,13.4-0.4c2.1,0,4.1,0.1,6.2,0.3c0.3,0,0.6,0,0.9,0.1c-0.1,0-0.3,0-0.4,0.1     C76.2,58.5,75.1,58.6,74,58.6 M80.1,59.5c-0.5,0-1.1,0-1.6,0c-0.4,0-0.9,0-1.3,0c0,0,0.1,0,0.1,0c1-0.2,2-0.4,2.9-0.8     c0.2,0,0.4,0.1,0.5,0.1C80.5,59,80.3,59.2,80.1,59.5 M82.7,57.1c-0.2,0.1-0.4,0.3-0.6,0.5c0,0-0.1-0.1-0.1-0.1     c-0.2-0.3-0.8-0.3-1.2-0.4c-0.2,0-0.4-0.1-0.6-0.1c1,0,2,0,2.9,0C83,57,82.9,57,82.7,57.1 M85.8,30.9c0,0.5-0.1,1.1-0.1,1.6     c-0.1,1.1-0.1,2.2-0.1,3.2c0,2.2,0,4.5-0.1,6.7c0,4.2,0,8.4,0.1,12.7c-2.7-0.3-5.4-0.2-8.1-0.2c-3,0-6,0-9,0     c-5.6,0-11.1,0-16.7,0c-2.8,0-5.6,0.1-8.3,0.1c-1.4,0-2.8,0-4.2,0c-0.7,0-1.4,0-2.2,0c-0.6,0-1.1,0.1-1.6,0.3     c-0.4-0.3-1.2-0.1-1.2,0.6c0,0.5,0,0.9,0,1.4c-0.1,0.2-0.1,0.5,0,0.8c0,1.7,0,3.5-0.2,5.2c-0.4-0.6-0.9-1.1-1.3-1.7     c-3-3.7-6.4-7.1-9.9-10.4c-1.8-1.6-3.6-3.1-5.5-4.6c-0.9-0.7-1.9-1.5-2.8-2.2c-0.5-0.3-0.9-0.7-1.4-1c-0.1-0.1-0.3-0.2-0.4-0.3     c0,0,0,0,0,0c0.4-0.3,0.7-0.6,1.1-0.9c4.2-3.6,8.4-7.2,12.5-11c2-1.9,4-3.7,5.9-5.8c0.6-0.7,1.2-1.4,1.8-2.1c0,0.7,0,1.3,0,2     c0,0.8,0,1.6,0.1,2.4c0,0.5,0.1,1,0.2,1.5c-0.1,0.2-0.1,0.5,0.3,0.6c0.1,0.1,0.4,0.1,0.5,0c1.4,0.1,2.8,0.3,4.2,0.4     c1.5,0,3.1,0.1,4.6,0.1c3.1,0,6.1,0.1,9.2,0.1c5.5,0,11,0.1,16.5,0.1c2.7,0,5.5,0,8.2-0.1c1.4,0,2.7-0.1,4.1-0.1     c0.7,0,1.4-0.1,2.1-0.1c0.7,0,1.2-0.3,1.8-0.4C86,30,85.8,30.5,85.8,30.9"/><path class="st1" d="M33.6,20.6C33.7,20.5,33.7,20.5,33.6,20.6C33.7,20.5,33.7,20.6,33.6,20.6C33.7,20.6,33.7,20.6,33.6,20.6"/><path class="st1" d="M83.9,48.8c-0.2,0-0.3,0-0.5,0c0.1-1.8,0.1-3.5,0.1-5.3c0-2.9-0.2-5.8-0.7-8.7c0-0.1-0.1-0.1-0.2-0.1     c-0.1-0.5-0.2-0.9-0.3-1.4c0-0.1-0.1-0.1-0.1,0c0,0.5,0.1,1.1,0.2,1.6c0.1,0.5,0.1,1.1,0.3,1.6c0,0,0,0,0,0c0.1,1,0.2,2,0.2,3     c-4-0.3-8-0.5-12-0.2c0,0,0,0.1,0,0.1c4-0.1,8,0.1,12,0.3c0.1,1.4,0.1,2.8,0.1,4.1c0,1,0,2.1-0.1,3.1c-4.3-0.1-8.6-0.1-12.8,0.1     c-0.2,0-0.2,0.3,0,0.3c4.3,0.1,8.6,0.1,12.8,0.1c0,0.5,0,1,0,1.5c-2.6,0-5.2,0-7.8,0c-0.1,0-0.1,0.1,0,0.1c2.6,0,5.2,0,7.8,0     c0,0.4,0,0.8,0,1.2c-1.2,0.1-2.4,0.1-3.6,0.1c-10.8,0.3-21.5-0.7-32.2-1c-0.1,0-0.1,0.1,0,0.1c1.4,0.1,2.9,0.2,4.3,0.2     c5.4,0.3,10.8,0.7,16.1,0.9c5.1,0.2,10.3,0.3,15.4,0.1c0,0.6,0,1.2,0,1.7c0,0,0,0-0.1,0c-2.9,0-5.8,0.1-8.8,0.1     c-11,0.2-22,0.2-33,0.7c-0.2,0-0.3,0.4,0,0.4c2.9,0,5.8,0,8.8,0c11-0.1,22-0.4,33-0.7c0.1,0,0.2,0,0.2-0.1c0.1,0,0.2,0,0.2-0.1     c0-0.7,0.1-1.3,0.1-2c0.1,0,0.2,0,0.2,0c0.3,0,0.3-0.5,0-0.5c-0.1,0-0.2,0-0.3,0c0-0.4,0-0.8,0-1.2c0.1,0,0.3,0,0.4,0     C84,49,84,48.8,83.9,48.8"/><path class="st1" d="M38.6,53.2c-0.5-0.1-1-0.1-1.5-0.1c-0.6,0-1.2,0-1.7,0c-0.6,0-1.2,0-1.8,0c-0.5,0-1,0-1.4,0.1     c0,0,0-0.1,0-0.1c0-0.1-0.2-0.1-0.2,0c-0.2,0.7-0.2,1.6-0.2,2.3c0,0.4,0,0.7,0,1.1c-1.3-2.3-3.4-4.2-5.4-5.9     c-0.1-0.1-0.2,0-0.1,0.1c1.1,1.1,2.3,2.1,3.2,3.4c0.9,1.2,1.7,2.6,2.3,4c0.1,0.3,0.6,0.1,0.6-0.2c0-0.9,0-1.7,0-2.6     c0-0.6,0-1.4-0.1-2c0.4,0.2,0.9,0.1,1.4,0.1c0.6,0,1.2,0,1.8,0c0.6,0,1.2,0,1.7,0c0.5,0,1,0,1.5-0.1     C38.7,53.3,38.7,53.2,38.6,53.2"/><path class="st1" d="M42.2,45.9c-7.1-0.1-14.2-0.1-21.3,0c0,0,0,0-0.1-0.1c-0.6-0.5-1.2-1.1-1.8-1.5c2.7,0.1,5.5,0,8.2,0     c3.1-0.1,6.2-0.2,9.2-0.5c0.1,0,0.1-0.1,0-0.1c-3,0.2-6,0.3-9.1,0.4c-2.9,0.1-5.7,0-8.6,0.1c-0.5-0.4-1.1-0.8-1.6-1     c0.1-0.1,0.2-0.2,0.2-0.3c0.2-0.2,0.3-0.5,0.5-0.6c0.6,0.1,1.3,0.1,1.9,0.1c1.2,0,2.3,0,3.5-0.1c2.3-0.2,4.6-0.5,6.8-0.9     c0.1,0,0-0.1,0-0.1c-2.3,0.4-4.5,0.6-6.8,0.8C22.2,42,21.1,42,20,42c-0.6,0-1.2-0.1-1.9-0.1c0-0.2-0.1-0.3-0.3-0.2     c-0.1,0.1-0.2,0.1-0.2,0.2c-0.2,0-0.4,0-0.6,0c-0.1,0-0.1,0.1,0,0.1c0.1,0,0.3,0.1,0.4,0.1c0,0-0.1,0.1-0.1,0.1     c-0.2,0.2-0.4,0.6-0.6,0.7c-0.2,0.1-0.3,0.3-0.1,0.5c0.7,0.5,1.5,0.9,2.1,1.4c0.4,0.3,0.9,0.7,1.3,1.1c-0.1,0-0.2,0-0.3,0     c-0.1,0,0,0.1,0,0.1c0.1,0,0.2,0,0.4,0c0.2,0.2,0.3,0.3,0.5,0.5c1.2,1.1,2.2,2.3,3.5,3.4c0.2,0.2,0.4-0.1,0.3-0.3     c-1-1.2-2.1-2.4-3.3-3.5C28,46,35.1,46,42.2,45.9C42.2,46,42.2,45.9,42.2,45.9"/><path class="st1" d="M82.4,32.8c-2.7-0.1-5.4,0.1-8,0.1c-2.7,0-5.4,0-8.1,0c-5.4,0-10.8-0.1-16.1-0.2c-2.4-0.1-4.8-0.2-7.1-0.2     c-2.3,0-4.6-0.2-6.8-0.5c-0.2,0-0.2,0.3,0,0.3c5.2,0.6,10.4,0.6,15.6,0.8c5.4,0.1,10.8,0.2,16.2,0.1c2.4,0,4.9,0,7.3-0.1     c2.4,0,4.8,0,7.2-0.2C82.6,33,82.6,32.8,82.4,32.8"/><path class="st1" d="M31.1,28.1c-2,2.8-4.4,5.4-7,7.8c0,0,0,0,0,0c2.6-2.3,5-4.9,7-7.7C31.3,28.2,31.2,28.1,31.1,28.1"/><path class="st1" d="M32.1,32c0-0.4-0.1-0.8-0.1-1.2c0-0.4-0.1-0.9-0.2-1.3c-0.1-0.4-0.2-0.7-0.3-1c0,0,0,0,0,0     c0.1,0.3,0,0.6,0.1,0.9c0,0.4,0.1,0.9,0.1,1.3c0,0.4,0.1,0.8,0.1,1.2c0,0.2,0,0.3,0,0.5c0,0.2,0.1,0.2,0.1,0.3     c0,0.1,0.1,0.1,0.1,0c0-0.1,0.1-0.1,0.1-0.3C32.1,32.3,32.1,32.1,32.1,32"/><path class="st1" d="M22.9,40.4c-0.7,0-1.3,0-2,0c-0.1,0-0.1,0.2,0,0.2C21.6,40.5,22.3,40.5,22.9,40.4C23,40.5,23,40.4,22.9,40.4     "/><path class="st1" d="M28.2,35.6c-1-0.2-2.5-0.2-3.3,0.5c0,0,0,0.1,0.1,0.1C25.7,35.5,27.2,35.5,28.2,35.6     C28.2,35.7,28.2,35.7,28.2,35.6"/><path class="st1" d="M82.7,41.1c-2.7-0.1-5.5-0.1-8.2,0.1c-0.1,0-0.1,0.1,0,0.1c2.7,0.1,5.5,0.1,8.3,0.1     C82.8,41.3,82.8,41.1,82.7,41.1"/><path class="st1" d="M82.2,36.9c-2.1,0-4.1,0.1-6.2,0.3c-0.1,0,0,0.1,0,0.1C78.1,37.2,80.2,37.2,82.2,36.9     C82.3,36.9,82.3,36.9,82.2,36.9"/></g></g></g><text x="0" y="110" fill="#000000" font-size="5px" font-weight="bold" font-family="'Helvetica Neue', Helvetica, Arial-Unicode, Arial, Sans-serif">Created by Marcel Dornis</text><text x="0" y="115" fill="#000000" font-size="5px" font-weight="bold" font-family="'Helvetica Neue', Helvetica, Arial-Unicode, Arial, Sans-serif">from the Noun Project</text></svg>